<?xml version="1.0"?>
<svg xmlns="http://www.w3.org/2000/svg" viewBox="0 0 50 50">
    <path style="line-height:normal;text-indent:0;text-align:start;text-decoration-line:none;text-decoration-style:solid;text-decoration-color:#000;text-transform:none;block-progression:tb;isolation:auto;mix-blend-mode:normal" d="M 10.599609 4 C 5.8620649 4 2 7.8620649 2 12.599609 L 2 31.400391 L 2 38.400391 C 2 43.137935 5.8620649 47 10.599609 47 L 39.400391 47 C 44.137935 47 48 43.137935 48 38.400391 L 48 30.599609 L 48 12.599609 C 48 7.8620649 44.137935 4 39.400391 4 L 10.599609 4 z M 10.599609 6 L 39.400391 6 C 43.056846 6 46 8.9431546 46 12.599609 L 46 30.599609 L 46 31.400391 C 46 35.056846 43.056846 38 39.400391 38 L 10.599609 38 C 6.9431546 38 4 35.056846 4 31.400391 L 4 30.599609 L 4 12.599609 C 4 8.9431546 6.9431546 6 10.599609 6 z M 25.574219 16.597656 L 25.574219 26.966797 L 27.269531 26.966797 L 27.269531 16.597656 L 25.574219 16.597656 z M 18.5 17.101562 L 15 26.966797 L 16.783203 26.966797 L 17.632812 24.443359 L 21.261719 24.443359 L 22.095703 26.966797 L 23.988281 26.966797 L 20.482422 17.101562 L 18.5 17.101562 z M 29.951172 17.703125 L 29.951172 19.535156 L 28.734375 19.535156 L 28.734375 20.888672 L 29.951172 20.888672 L 29.951172 24.970703 C 29.951172 26.419703 30.633609 27 32.349609 27 C 32.677609 27 32.985609 26.965969 33.224609 26.917969 L 33.224609 25.591797 C 33.025609 25.611797 32.903062 25.626953 32.664062 25.626953 C 31.953062 25.626953 31.638672 25.298547 31.638672 24.560547 L 31.638672 20.890625 L 33.279297 20.890625 L 33.279297 19.535156 L 31.638672 19.535156 L 31.638672 17.703125 L 29.951172 17.703125 z M 19.396484 18.982422 L 19.511719 18.982422 L 20.851562 23.050781 L 18.042969 23.050781 L 19.396484 18.982422 z M 4 36.902344 C 5.5794631 38.792759 7.9525731 40 10.599609 40 L 39.400391 40 C 42.047427 40 44.420537 38.792759 46 36.902344 L 46 38.400391 C 46 42.056846 43.056846 45 39.400391 45 L 10.599609 45 C 6.9431546 45 4 42.056846 4 38.400391 L 4 36.902344 z" font-weight="400" font-family="sans-serif" white-space="normal" overflow="visible"/>
</svg>
